<svg width="24" height="24" viewBox="0 0 24 24" fill="none" xmlns="http://www.w3.org/2000/svg">
<path d="M19.5 5.625V16.875C19.5 17.5312 18.9844 18 18.375 18C17.7188 18 17.25 17.5312 17.25 16.875V8.34375L6.42188 19.1719C6.1875 19.4062 5.90625 19.5 5.625 19.5C5.29688 19.5 5.01562 19.4062 4.82812 19.1719C4.35938 18.75 4.35938 18.0469 4.82812 17.625L15.6562 6.75H7.125C6.46875 6.75 6 6.28125 6 5.625C6 5.01562 6.46875 4.5 7.125 4.5H18.375C18.9844 4.5 19.5 5.01562 19.5 5.625Z" fill="#71788D"/>
</svg>
